<?xml version="1.0" standalone="no"?><svg xmlns="http://www.w3.org/2000/svg" viewBox="0 0 1440 320"><path fill="#2F251F" fill-opacity="1" d="M0,64L24,69.3C48,75,96,85,144,80C192,75,240,53,288,53.3C336,53,384,75,432,117.3C480,160,528,224,576,234.7C624,245,672,203,720,197.3C768,192,816,224,864,229.3C912,235,960,213,1008,213.3C1056,213,1104,235,1152,250.7C1200,267,1248,277,1296,277.3C1344,277,1392,267,1416,261.3L1440,256L1440,320L1416,320C1392,320,1344,320,1296,320C1248,320,1200,320,1152,320C1104,320,1056,320,1008,320C960,320,912,320,864,320C816,320,768,320,720,320C672,320,624,320,576,320C528,320,480,320,432,320C384,320,336,320,288,320C240,320,192,320,144,320C96,320,48,320,24,320L0,320Z"></path></svg>